<?xml version="1.0" encoding="UTF-8" standalone="no"?>
<!-- Created with Inkscape (http://www.inkscape.org/) -->

<svg
   version="1.1"
   id="svg1"
   width="666.66669"
   height="666.66669"
   viewBox="0 0 666.66669 666.66669">
  <defs
     id="defs1" />
      <path
         id="path2"
         d="M 316.25,4905.15 C 1467.65,4644.61 3603.22,4415.34 5000,4816.57 4474.58,3304.08 4477.05,1440.18 4584.68,94.8516 3225.39,596.109 1640.46,645.25 0,477.629 477.68,2017.88 536.5,3590.52 316.25,4905.15"
         transform="matrix(0.13333333,0,0,-0.13333333,0,666.66667)" />
      <path
         id="path3"
         d="m 3097.55,3330.28 c -10.66,31.11 -15.95,69.55 -16.09,104.94 28.89,-16.26 52.2,-41.65 65.91,-69.72 11.47,-23.49 14.81,-47.46 12.21,-64.74 -2.67,-17.67 -9.48,-21.08 -12.21,-21.85 -9.94,-2.76 -16.46,-0.81 -23.59,5.48 -8.9,7.9 -18.4,23.02 -26.23,45.87 z M 3270,3430.57 c -27.06,-0.02 -53.22,0.76 -78.16,2 8.18,-11.19 15.27,-22.91 21.15,-34.93 17.01,-34.82 23.95,-73.75 18.81,-107.82 -5.1,-33.7 -24.03,-70.05 -64.92,-81.4 -35.61,-9.89 -67.32,-0.2 -91.45,21.16 -11.11,9.82 -20.35,21.83 -28.05,34.93 -2.73,-5.77 -5.78,-11.33 -9.19,-16.58 -16.07,-24.78 -41.5,-44.08 -77.46,-44.08 -18.72,0 -35.98,4.86 -50.88,14.71 -14.61,9.67 -25.02,22.86 -32.4,36.74 -13.44,25.22 -18.81,56.32 -20.86,85.62 l -67.67,-137.04 -72.48,10.59 -0.25,46.48 c -6.98,-8.84 -14.87,-17.03 -23.72,-24.31 -26.52,-21.78 -59.65,-33.52 -99.19,-32.97 -41.92,0.59 -78.88,23.8 -108.18,50.2 -2.62,2.35 -5.22,4.77 -7.8,7.26 l -4.45,-56.17 -72.81,5.78 10.45,131.71 c -1.48,2.17 -2.94,4.34 -4.38,6.5 -22.29,33.47 -40.7,66.67 -53.48,91.37 -6.4,12.4 -11.46,22.74 -14.93,30.06 -1.73,3.65 -3.09,6.55 -4,8.56 -0.21,0.46 -0.38,0.85 -0.55,1.22 -0.21,0.46 -0.38,0.83 -0.53,1.14 -0.12,0.28 -0.21,0.49 -0.27,0.65 l -0.09,0.2 -0.04,0.06 v 0.03 l 60.97,38.8 c 8.9,-10.27 18.8,-19.45 29.3,-27.42 l 13.03,164.43 72.81,-5.79 -15.23,-191.9 c 10.47,-2.22 20.79,-3.23 30.65,-2.94 20.92,0.63 39.2,7.01 53.79,19.2 14.62,12.17 28.1,32.26 35.75,64.61 l 71.08,-16.86 c -10.62,-44.86 -31.22,-79.9 -60.07,-103.96 -28.86,-24.06 -63.45,-35.04 -98.33,-36.1 -20.16,-0.62 -40.61,2.06 -60.65,7.54 0.36,-0.54 0.72,-1.09 1.08,-1.63 0.15,-0.22 0.3,-0.45 0.43,-0.66 20.51,-30.79 43.49,-60.05 67.09,-81.32 24.31,-21.9 44.66,-31.21 60.38,-31.42 23.46,-0.33 39.51,6.26 51.83,16.37 13.07,10.74 24.3,27.47 33.78,50.87 18.64,46.13 26.21,106.84 33.97,169.03 0.32,2.49 0.64,4.98 0.93,7.46 v 1.14 l 18.17,-3.22 54.01,-9.57 0.93,-0.16 0.74,-140.31 75.4,152.71 72.21,-12.81 c -0.48,-11.78 -1.71,-27.01 -3.04,-43.19 -0.81,-9.7 -1.61,-19.75 -2.31,-29.58 -2.01,-28.37 -3.32,-58.04 -1.8,-84.95 1.59,-27.71 6.03,-48.31 12.74,-60.9 3.11,-5.82 6.03,-8.67 8.21,-10.11 1.92,-1.27 4.95,-2.6 10.64,-2.6 5.69,0 10.3,1.67 16.22,10.81 7.05,10.85 13.01,28.57 17.6,53.07 4.49,23.89 7.05,50.53 9.44,77.42 0.19,2.19 0.38,4.4 0.57,6.61 v 0.08 0.07 0.05 c 1.42,16.06 2.86,32.42 4.76,47.44 l 2.96,47.58 c 19.93,-1.23 42.37,-3.28 66.91,-5.52 55.53,-5.08 121.78,-11.14 193.86,-10.96 3.87,57.2 10.85,112.9 17.66,155.07 l 72.09,-11.67 c -6.2,-38.45 -12.56,-88.9 -16.35,-140.93 39.26,2.65 79.65,7.64 120.47,15.98 l 14.6,-71.67 c -46.9,-9.57 -93.46,-15.02 -138.45,-17.72 -0.68,-45.52 1.73,-86.88 8.48,-117.5 3.26,-14.61 8.27,-24.85 13.37,-30.91 4.48,-5.35 8.71,-7.34 13.73,-7.66 7.84,-0.52 21.05,4.34 36.17,23.16 14.45,18 25.41,42.9 29.28,66.09 l 72.05,-12.06 c -5.88,-35.13 -21.85,-71.74 -44.4,-99.85 -21.92,-27.27 -55.77,-53.13 -97.93,-50.32 -57.41,3.8 -84.29,53.88 -93.56,95.72 -8.25,37.27 -10.83,83.65 -10.26,131.19 z m -1186.7,-44.16 c -3.47,-18.96 -1.97,-45.16 6.26,-67.4 1.55,1.79 3.05,3.63 4.53,5.51 23.93,30.22 36.24,64.68 38.27,78.03 2.07,13.7 0.97,26.9 -2.37,35.4 -1.55,3.93 -3.13,5.75 -4,6.52 -0.59,0.52 -1.63,1.3 -4.4,1.64 -2.33,0.29 -8.55,-0.1 -17.75,-11.41 -9.07,-11.19 -16.94,-28.71 -20.54,-48.29 z m -558.89,124.94 c 6.02,51.68 14.62,103.55 22.15,148.23 l 72.02,-12.18 c -7.16,-42.49 -14.93,-89.48 -20.59,-135.79 31.11,1.19 64.14,3.86 98.67,8.65 l 10.03,-72.45 c -40.73,-5.65 -79.47,-8.54 -115.57,-9.6 -0.1,-1.64 -0.2,-3.27 -0.28,-4.89 -1.83,-34.51 -1.28,-65.38 2.45,-90.62 3.83,-25.96 10.46,-41.86 17.42,-50.28 11.78,-14.25 23.72,-16.89 33.31,-15.67 6.21,0.8 12.58,3.38 18.26,7.48 24.69,17.38 71.09,84.82 70.88,271.89 -0.71,17.98 -1.35,34.18 -1.87,47.93 -0.56,14.91 -1.02,26.95 -1.31,35.26 -0.15,4.16 -0.28,7.38 -0.34,9.57 l -0.05,1.42 -0.07,0.94 c 0,0.44 0,0.8 0,1.06 0,0.24 0,0.4 0,0.52 v 0.11 c 0,0 0,0 0.39,0 l 72.64,1.85 -36.42,-1.3 c 24.28,0.87 36.42,1.3 36.42,1.3 v -0.05 -0.16 l 0.03,-0.62 0.1,-2.43 c 0.08,-2.15 0.19,-5.32 0.34,-9.41 0.31,-8.2 0.75,-20.06 1.31,-34.79 1.14,-29.44 2.76,-70.25 4.73,-115.75 1.9,-44 4.1,-92.27 6.47,-138.84 l 83.68,168 71.55,-12.69 -0.04,-0.49 c -3.81,-38.46 -9.92,-100.27 -4.51,-153.2 2.82,-27.37 8.36,-48.42 16.12,-61.83 6.75,-11.64 13.52,-15.43 22.83,-15.82 7.74,-0.32 15.19,0.35 22.34,1.87 -0.17,0.33 -0.3,0.65 -0.47,1 -18.47,39.09 -21.85,85.36 -15.5,120 5.35,29.18 17.43,58.76 35.77,81.31 18.23,22.4 46.94,42.32 83.39,37.79 35.85,-4.47 57.3,-28.41 67.35,-54 9.41,-24.01 9.94,-51.05 6.6,-73.1 -3.79,-25.08 -19.5,-66.3 -46.24,-103.28 l -10.16,-12.33 c 27.93,-6.21 66.09,16.51 79.33,85.95 0.21,1.02 0.36,1.79 0.45,2.26 l 0.04,0.16 0.02,0.16 c 0,0 0.02,0.13 0.04,0.17 v -0.05 -0.05 c 0,0 0,-0.05 36.09,-5.7 36.07,-5.66 36.07,-5.68 36.07,-5.7 v -0.03 l -0.02,-0.08 -0.02,-0.18 c -0.03,-0.13 -0.05,-0.31 -0.09,-0.5 -0.06,-0.39 -0.17,-0.9 -0.25,-1.51 -0.23,-1.22 -0.55,-2.88 -1,-4.91 -0.86,-4.05 -2.22,-9.61 -4.18,-16.21 -3.88,-13.05 -10.39,-30.85 -20.88,-48.97 -21.18,-36.51 -61.24,-77.93 -129.4,-77.93 -25.39,0 -46.84,6.41 -64.59,16.88 -22.5,-10.88 -48.4,-17.32 -77.67,-16.1 -39.37,1.65 -66.49,23.77 -82.96,52.2 -15.24,26.31 -22.24,58.98 -25.5,89.88 l -70.64,-141.85 -72.76,10.63 c -1.32,18.81 -2.62,39.6 -3.88,61.61 -3.49,-6.94 -7.24,-13.54 -11.25,-19.71 -18.12,-27.82 -48.05,-47.95 -81.84,-52.24 -35.27,-4.49 -71.61,8.72 -98.78,41.6 -19.42,23.49 -28.78,54.92 -33.41,86.21 -4.72,31.99 -5.09,68.24 -3.13,105.2 0.02,0.41 0.05,0.81 0.06,1.2 -40.18,1.35 -75.42,4.56 -104.35,7.74 l 8,72.71 c 28.69,-3.17 63.39,-6.28 102.78,-7.48 l -0.11,0.03"
         transform="matrix(0.13333333,0,0,-0.13333333,0,666.66667)" />
      <path
         id="path4"
         d="m 3892.52,2100.12 c 1.44,-18.21 9.1,-33.08 23.02,-44.59 13.9,-11.51 33.8,-17.26 59.69,-17.26 43.16,0 64.74,13.92 64.74,41.72 0,11.99 -3.85,21.34 -11.51,28.05 -7.19,7.19 -20.14,11.99 -38.84,14.38 l -80.55,10.07 c -34.06,4.31 -59.96,15.36 -77.68,33.08 -17.75,17.75 -26.61,41.72 -26.61,71.93 0,38.84 14.61,68.09 43.87,87.75 29.72,19.67 69.51,29.48 119.39,29.48 49.86,0 89.65,-9.81 119.4,-29.48 29.72,-19.66 46.26,-48.91 49.62,-87.75 h -98.53 c -1.93,15.36 -8.89,27.58 -20.86,36.68 -11.51,9.12 -28.05,13.66 -49.63,13.66 -22.06,0 -38.37,-3.59 -48.91,-10.78 -10.55,-7.2 -15.82,-17.01 -15.82,-29.49 0,-10.07 3.34,-18.22 10.07,-24.46 6.71,-6.22 18.45,-10.3 35.24,-12.22 l 75.52,-8.63 c 41.72,-5.27 71.67,-17.01 89.91,-35.25 18.7,-18.21 28.05,-43.62 28.05,-76.24 0,-79.58 -56.1,-119.39 -168.3,-119.39 -59.95,0 -104.55,11.99 -133.78,35.96 -28.77,24.46 -43.64,55.38 -44.6,92.78 z m -422,71.21 c 0,-35.96 7.19,-61.6 21.58,-76.96 14.87,-14.85 39.32,-22.3 73.36,-22.3 32.13,0 55.38,7.92 69.77,23.74 14.38,16.31 21.57,41.48 21.57,75.52 0,34.52 -7.19,59.69 -21.57,75.52 -13.9,15.82 -37.15,23.73 -69.77,23.73 -34.04,0 -58.49,-7.65 -73.36,-23.01 -14.39,-14.85 -21.58,-40.28 -21.58,-76.24 z m 90.62,-340.2 c -59.44,0 -105.24,12.48 -137.37,37.4 -31.65,24.45 -48.91,57.54 -51.78,99.25 h 104.28 c 4.81,-40.74 34.78,-61.13 89.91,-61.13 31.64,0 54.66,6.01 69.05,17.98 14.38,11.99 21.57,32.13 21.57,60.42 v 66.17 c -24.92,-38.36 -66.63,-57.54 -125.14,-57.54 -56.1,0 -98.29,16.54 -126.59,49.62 -27.8,33.58 -41.72,76.73 -41.72,129.47 0,53.71 13.92,97.09 41.72,130.18 28.3,33.57 70.49,50.35 126.59,50.35 58.51,0 100.22,-19.66 125.14,-58.98 v 48.19 h 106.45 v -345.24 c 0,-56.1 -15.82,-97.81 -47.47,-125.14 -31.65,-27.34 -83.18,-41 -154.64,-41 z m -597.22,511.38 h 106.45 v -71.93 c 11.99,26.38 28.77,46.75 50.35,61.14 21.57,14.87 47.95,22.29 79.11,22.29 89.19,0 133.78,-50.09 133.78,-150.32 v -220.8 h -106.45 v 204.26 c 0,28.31 -5.75,48.68 -17.26,61.14 -11.51,12.94 -28.51,19.42 -51.06,19.42 -58.98,0 -88.47,-40.51 -88.47,-121.55 v -163.27 h -106.45 z m -164.68,118.67 h 115.8 v -71.2 h -115.8 z m 5.03,-118.67 h 106.45 V 1982.89 H 2804.27 Z M 2453.6,2162.7 c 0,-37.87 6.94,-65.45 20.86,-82.71 13.9,-16.78 37.4,-25.18 70.49,-25.18 33.55,0 57.77,8.63 72.64,25.89 15.34,17.75 23.01,45.08 23.01,82 0,36.93 -7.67,64.01 -23.01,81.27 -14.87,17.75 -39.09,26.61 -72.64,26.61 -33.09,0 -56.59,-8.63 -70.49,-25.89 -13.92,-16.77 -20.86,-44.11 -20.86,-81.99 z m 58.98,191.31 c 58.49,0 101.16,-21.32 128.02,-64.01 v 196.35 h 106.45 V 1982.89 H 2640.6 v 51.78 c -26.86,-42.18 -69.53,-63.29 -128.02,-63.29 -55.63,0 -97.35,17.98 -125.15,53.94 -27.33,35.96 -40.99,82 -40.99,138.1 0,55.15 13.66,100.69 40.99,136.65 27.8,35.96 69.52,53.94 125.15,53.94 z M 2013.01,2162.7 c 0,-37.87 6.96,-65.45 20.85,-82.71 13.9,-16.78 37.4,-25.18 70.49,-25.18 33.57,0 57.77,8.63 72.64,25.89 15.34,17.75 23.02,45.08 23.02,82 0,36.93 -7.68,64.01 -23.02,81.27 -14.87,17.75 -39.07,26.61 -72.64,26.61 -33.09,0 -56.59,-8.63 -70.49,-25.89 -13.89,-16.77 -20.85,-44.11 -20.85,-81.99 z m 58.97,191.31 c 58.49,0 101.18,-21.32 128.03,-64.01 v 196.35 h 106.45 v -503.46 h -106.45 v 51.78 c -26.85,-42.18 -69.54,-63.29 -128.03,-63.29 -55.61,0 -97.33,17.98 -125.14,53.94 -27.34,35.96 -41,82 -41,138.1 0,55.15 13.66,100.69 41,136.65 27.81,35.96 69.53,53.94 125.14,53.94 z M 1786.41,2200.1 c -1.92,27.33 -9.84,47.72 -23.74,61.13 -13.43,13.92 -33.32,20.86 -59.7,20.86 -26.37,0 -46.99,-6.22 -61.85,-18.7 -14.39,-12.46 -23.74,-33.55 -28.05,-63.29 z m -84.88,-228.72 c -65.69,0 -114.35,17.98 -146,53.94 -31.65,36.45 -47.47,82.48 -47.47,138.1 0,35.96 6.95,68.32 20.86,97.09 14.38,28.77 35.96,51.56 64.73,68.33 29.25,16.8 65.21,25.17 107.88,25.17 63.78,0 110.77,-17.72 140.97,-53.22 30.21,-35.47 45.32,-81.02 45.32,-136.65 0,-13.9 -0.48,-23.48 -1.44,-28.77 h -274.03 c 2.88,-32.6 11.99,-55.85 27.33,-69.77 15.82,-13.9 37.16,-20.86 64.01,-20.86 22.06,0 39.8,4.09 53.23,12.23 13.42,8.63 22.77,20.14 28.05,34.52 h 102.13 c -5.76,-34.03 -23.5,-62.57 -53.23,-85.59 -29.25,-23.01 -73.36,-34.52 -132.34,-34.52 z m -296.1,489.8 h 107.88 l -89.9,-478.29 H 1237.84 L 1155.85,2372 1073.86,1982.89 H 888.297 l -89.188,478.29 h 107.168 l 77.676,-410.68 89.907,410.68 h 164.7 l 89.19,-410.68 z m 2029.89,371.93 h -64.01 v 51.07 l 64.01,30.92 v 33.09 c 0,35.5 9.58,62.57 28.77,81.27 19.65,18.7 51.07,28.05 94.22,28.05 h 92.06 v -76.95 h -123.71 v -66.89 h 104.29 v -80.56 h -89.18 v -279.06 h -106.45 z m -359.3,-99.25 c 0,-39.31 7.19,-67.13 21.58,-83.43 14.38,-16.29 37.86,-24.46 70.48,-24.46 33.09,0 56.82,8.17 71.2,24.46 14.39,16.3 21.58,44.12 21.58,83.43 0,39.32 -7.19,67.14 -21.58,83.43 -14.38,16.31 -38.11,24.45 -71.2,24.45 -32.62,0 -56.1,-8.14 -70.48,-24.45 -14.39,-16.29 -21.58,-44.11 -21.58,-83.43 z m 92.06,-191.32 c -45.57,0 -83.2,8.63 -112.92,25.89 -29.74,17.75 -51.55,41 -65.45,69.77 -13.92,28.77 -20.86,60.9 -20.86,96.38 0,35.01 6.94,66.89 20.86,95.65 13.9,28.77 35.71,51.79 65.45,69.05 29.72,17.26 67.35,25.89 112.92,25.89 45.55,0 83.18,-8.86 112.92,-26.61 30.21,-17.26 52.02,-40.28 65.45,-69.04 13.9,-28.77 20.86,-60.42 20.86,-94.94 0,-34.99 -6.96,-67.13 -20.86,-96.38 -13.43,-28.77 -35.24,-52.02 -65.45,-69.77 -29.74,-17.26 -67.37,-25.89 -112.92,-25.89 z m -453.82,11.51 c -49.39,0 -83.91,10.32 -103.57,30.92 -19.18,21.12 -28.77,53.95 -28.77,98.54 v 149.6 h -65.45 v 51.07 l 74.08,30.21 43.88,84.87 h 53.94 v -85.59 h 103.57 v -80.56 h -103.57 v -194.19 h 93.5 v -84.87 z m -450.39,117.23 c 1.44,-18.21 9.1,-33.08 23.02,-44.59 13.9,-11.51 33.8,-17.26 59.69,-17.26 43.16,0 64.74,13.92 64.74,41.71 0,12 -3.85,21.35 -11.51,28.05 -7.19,7.2 -20.14,12 -38.84,14.39 l -80.55,10.07 c -34.06,4.31 -59.96,15.36 -77.68,33.08 -17.75,17.75 -26.61,41.72 -26.61,71.93 0,38.84 14.61,68.09 43.87,87.74 29.72,19.68 69.51,29.49 119.39,29.49 49.86,0 89.65,-9.81 119.4,-29.49 29.72,-19.65 46.26,-48.9 49.62,-87.74 h -98.53 c -1.93,15.36 -8.89,27.58 -20.86,36.68 -11.51,9.12 -28.05,13.66 -49.63,13.66 -22.06,0 -38.37,-3.59 -48.91,-10.78 -10.55,-7.2 -15.82,-17.01 -15.82,-29.49 0,-10.07 3.34,-18.22 10.07,-24.46 6.71,-6.22 18.45,-10.3 35.24,-12.22 l 75.52,-8.64 c 41.72,-5.26 71.67,-17 89.91,-35.24 18.7,-18.21 28.05,-43.62 28.05,-76.24 0,-79.58 -56.1,-119.39 -168.3,-119.39 -59.95,0 -104.55,11.99 -133.78,35.96 -28.77,24.46 -43.64,55.38 -44.6,92.78 z m -210.12,99.98 c -1.9,27.33 -9.82,47.72 -23.74,61.13 -13.41,13.92 -33.31,20.86 -59.69,20.86 -26.36,0 -46.98,-6.22 -61.85,-18.7 -14.38,-12.46 -23.73,-33.55 -28.05,-63.29 z m -84.87,-228.72 c -65.68,0 -114.35,17.98 -146,53.94 -31.64,36.45 -47.47,82.48 -47.47,138.1 0,35.96 6.96,68.32 20.86,97.09 14.39,28.77 35.96,51.56 64.73,68.33 29.25,16.8 65.21,25.17 107.88,25.17 63.78,0 110.76,-17.72 140.97,-53.22 30.21,-35.47 45.31,-81.02 45.31,-136.65 0,-13.9 -0.46,-23.49 -1.44,-28.77 H 1879.7 c 2.88,-32.6 11.99,-55.85 27.33,-69.77 15.83,-13.9 37.16,-20.86 64.01,-20.86 22.06,0 39.81,4.08 53.22,12.23 13.43,8.63 22.78,20.14 28.05,34.52 h 102.13 c -5.75,-34.03 -23.48,-62.57 -53.22,-85.59 -29.24,-23.01 -73.36,-34.52 -132.34,-34.52 z m -401.24,292.73 c 43.16,0 64.74,19.19 64.74,57.54 0,19.19 -4.8,33.34 -14.39,42.43 -9.11,9.61 -24.69,14.39 -46.75,14.39 h -125.15 v -114.36 z m 6.48,-197.79 c 43.63,0 65.45,20.62 65.45,61.85 0,41.72 -23.98,62.58 -71.93,62.58 h -121.55 v -124.43 z m -237.35,394.86 h 266.84 c 48.42,0 84.39,-11.02 107.88,-33.08 23.5,-21.58 35.24,-49.86 35.24,-84.87 0,-33.09 -8.87,-58.73 -26.61,-76.96 -17.74,-18.22 -41.71,-30.44 -71.92,-36.68 70,-11.03 105.01,-49.86 105.01,-116.52 0,-40.74 -13.19,-72.64 -39.56,-95.66 -26.37,-23.01 -64.73,-34.52 -115.08,-34.52 h -261.8 v 478.29"
         transform="matrix(0.13333333,0,0,-0.13333333,0,666.66667)" />
      <path
         id="path5"
         d="m 1811.8,1445.65 169,121 c 12.99,9.33 22.16,18.51 27.5,27.5 5.33,9 7.99,19 7.99,30 0,13.33 -4.49,24.17 -13.49,32.5 -9.01,8.33 -22.68,12.5 -41,12.5 -49.68,0 -75.17,-27.83 -76.5,-83.5 h -77 c 0.66,25 6.16,48.17 16.5,69.51 10.32,21.32 27,38.66 50,51.99 23,13.33 52.82,20 89.5,20 45.67,0 78.66,-9 99,-26.99 20.33,-18.01 30.49,-41.51 30.49,-70.51 0,-22.67 -7.83,-44 -23.49,-64 -15.68,-20 -42.17,-42 -79.5,-66 l -76.5,-54 h 186 v -59.5 h -288.5 v 59.5"
         transform="matrix(0.13333333,0,0,-0.13333333,0,666.66667)" />
      <path
         id="path6"
         d="m 2232.54,1467.66 c 12.17,-18.34 33.42,-27.5 63.75,-27.5 30.67,0 52.08,9.16 64.25,27.5 12.17,18.32 18.25,46.49 18.25,84.49 0,38.67 -6.08,67.17 -18.25,85.51 -12.17,18.32 -33.58,27.5 -64.25,27.5 -30.33,0 -51.58,-9.18 -63.75,-27.5 -12.16,-18.34 -18.25,-46.84 -18.25,-85.51 0,-38 6.09,-66.17 18.25,-84.49 z m -28.25,-66.01 c -23.99,15.66 -41.49,36.58 -52.5,62.75 -10.99,26.17 -16.49,55.41 -16.49,87.75 0,32 5.5,61.17 16.49,87.5 11.01,26.33 28.51,47.5 52.5,63.5 24.01,16 54.67,24 92,24 37.33,0 68.08,-8 92.25,-24 24.17,-16 41.76,-37.17 52.75,-63.5 11,-26.33 16.51,-55.5 16.51,-87.5 0,-32.34 -5.51,-61.58 -16.51,-87.75 -10.99,-26.17 -28.58,-47.09 -52.75,-62.75 -24.17,-15.66 -54.92,-23.5 -92.25,-23.5 -37.33,0 -67.99,7.84 -92,23.5"
         transform="matrix(0.13333333,0,0,-0.13333333,0,666.66667)" />
      <path
         id="path7"
         d="m 2505.81,1445.65 168.99,121 c 13,9.33 22.17,18.51 27.5,27.5 5.34,9 8,19 8,30 0,13.33 -4.49,24.17 -13.49,32.5 -9.01,8.33 -22.68,12.5 -41,12.5 -49.68,0 -75.18,-27.83 -76.5,-83.5 h -77.01 c 0.66,25 6.16,48.17 16.51,69.51 10.32,21.32 27,38.66 50,51.99 23,13.33 52.82,20 89.5,20 45.66,0 78.66,-9 98.99,-26.99 20.34,-18.01 30.5,-41.51 30.5,-70.51 0,-22.67 -7.83,-44 -23.49,-64 -15.68,-20 -42.17,-42 -79.51,-66 l -76.49,-54 h 186 v -59.5 h -288.5 v 59.5"
         transform="matrix(0.13333333,0,0,-0.13333333,0,666.66667)" />
      <path
         id="path8"
         d="m 3110.3,1659.15 h -190 l -5.99,-83.99 c 20.99,20.32 51.82,30.49 92.5,30.49 35.66,0 64.41,-9.24 86.25,-27.75 21.82,-18.5 32.74,-45.59 32.74,-81.25 0,-37.33 -12.5,-66.42 -37.5,-87.25 -25,-20.84 -62.33,-31.25 -112,-31.25 -46,0 -80.67,9.51 -104,28.5 -23.33,19 -35.67,43.66 -37,74 h 79.5 c 1.67,-13.34 7.83,-24.17 18.5,-32.5 10.67,-8.34 26.33,-12.5 47,-12.5 23.33,0 40.58,5.08 51.75,15.25 11.16,10.16 16.75,25.42 16.75,45.75 0,20.33 -5.25,35.66 -15.74,46.01 -10.51,10.32 -25.93,15.49 -46.25,15.49 -29.68,0 -52.01,-10.67 -67.01,-32 h -73.5 l 12.5,192.5 h 251.5 v -59.5"
         transform="matrix(0.13333333,0,0,-0.13333333,0,666.66667)" />
</svg>
